<?xml version="1.0" encoding="utf-8"?>
<!-- Generator: Adobe Illustrator 21.0.0, SVG Export Plug-In . SVG Version: 6.00 Build 0)  -->
<svg version="1.1" id="Layer_1" xmlns="http://www.w3.org/2000/svg" xmlns:xlink="http://www.w3.org/1999/xlink" x="0px" y="0px"
	 viewBox="0 0 612 792" style="enable-background:new 0 0 612 792;" xml:space="preserve">
<style type="text/css">
	.st0{fill:#FFFFFF;}
	.st1{fill:#F7A800;}
	.st2{fill:#A41F35;}
	.st3{fill:#FFBF3B;}
</style>
<path class="st0" d="M144.9,376.4c-1.6-0.7-3.2-1-4.9-1c-6,0-10.9,4.5-10.9,13.2c0,9.3,4.4,13.6,10.8,13.6c2.6,0,6.2-0.8,8.5-1.6
	c0.1,0.8-0.2,2.2-0.5,2.9c-2.4,1.2-6.2,2.3-9.6,2.3c-8.1,0-13.6-6.7-13.6-15.9c0-10.9,7.1-17.3,15.6-17.3c3.3,0,6.1,0.6,8.4,1.7
	c0,2.4-0.2,5.6-0.5,7.5c-0.9,0-2.4-0.3-3.2-0.7V376.4z"/>
<path class="st0" d="M155.8,394.6c0.1,4.8,3.1,7.8,7.4,7.8c1.9,0,4.7-0.6,6.3-1.3c0.1,0.7-0.2,1.9-0.6,2.6c-1.6,0.9-4.3,1.9-7.1,1.9
	c-6.5,0-10.2-4.8-10.2-11.1c0-6.7,4.1-11.9,10.5-11.9c5.4,0,7.7,3.9,7.7,9.6c0,0.8,0,1.6-0.1,2.4H155.8z M165.8,392
	c0.3-3.1-0.6-6.9-4.4-6.9c-3.2,0-5.3,2.8-5.6,6.9H165.8z"/>
<path class="st0" d="M181.1,402.1c1.1,0.1,2.5,0.3,3.3,0.6c0.1,0.5,0.2,1.5,0.1,2.2h-10.9c0.1-0.7,0.3-1.4,0.6-2
	c0.7-0.3,2-0.7,2.9-0.9v-16.1h-3.3c0-0.8,0.4-1.7,0.8-2.4c1-0.4,2.4-0.6,3.8-0.6c0.8,0,1.5,0.1,2.1,0.3v3.3h0.5
	c0.8-1.5,3.2-3.8,7.3-3.8c3.6,0,6.7,1.1,6.7,8.1c0,3.8-0.1,7.5-0.3,11.4c1.2,0.1,2.8,0.3,3.7,0.6c0.1,0.4,0.1,0.9,0.1,1.4
	c0,0.3,0,0.5,0,0.8h-10.7c0.1-0.7,0.3-1.4,0.6-2c0.7-0.3,1.8-0.7,2.6-0.9v-10.6c0-3.5-1.1-5.7-4.3-5.7c-2.3,0-4.7,1.6-5.7,2.9V402.1
	z"/>
<path class="st0" d="M204.3,377.8c0.7-0.4,2.1-0.7,3-0.7v6.2h6.6c0.1,0.5,0.2,1.9,0.1,2.6h-6.7v12.4c0,2.9,0.4,4.2,2.9,4.2
	c1.3,0,2.8-0.2,4.2-0.6c0,0.2,0,0.5,0,0.6c0,0.6-0.2,1.4-0.5,1.8c-1.8,0.8-3.8,1.2-5.6,1.2c-3.5,0-5.2-1.9-5.2-6.6
	c0-2.7,0-8.5,0.2-13.1h-3.1c0-0.6,0.3-1.8,0.5-2.4c0.7-0.3,1.8-0.6,2.6-0.8L204.3,377.8z"/>
<path class="st0" d="M224.2,387.4c0.6-2.8,2.9-4.8,5.9-4.8c0.5,0,1.5,0.1,2,0.4c0.3,0.5,0.6,1.6,0.6,2.7c0,0.5,0,0.9-0.1,1.2
	c-0.8-0.5-2-0.8-3.1-0.8c-2.1,0-4.1,1.1-5.2,3.7v12.1c1.3,0.1,3.4,0.5,4.5,0.8c0.1,0.5,0.2,1.4,0.1,2.1h-12c0.1-0.7,0.3-1.4,0.6-2
	c0.7-0.3,2-0.7,2.9-0.9v-16.1H217c0-0.8,0.4-1.7,0.8-2.4c1-0.4,2.4-0.6,3.8-0.6c0.8,0,1.5,0.1,2.1,0.3v4.3H224.2z"/>
<path class="st0" d="M239.4,394.6c0.1,4.8,3.1,7.8,7.4,7.8c1.9,0,4.7-0.6,6.3-1.3c0.1,0.7-0.2,1.9-0.6,2.6c-1.6,0.9-4.3,1.9-7.1,1.9
	c-6.5,0-10.2-4.8-10.2-11.1c0-6.7,4.1-11.9,10.5-11.9c5.4,0,7.7,3.9,7.7,9.6c0,0.8,0,1.6-0.1,2.4H239.4z M249.4,392
	c0.3-3.1-0.6-6.9-4.4-6.9c-3.2,0-5.3,2.8-5.6,6.9H249.4z"/>
<path class="st0" d="M279.8,383.3c0.1,0.8,0.2,1.9,0.2,2.6h-6.2v16c1.3,0.1,3.4,0.5,4.5,0.8c0.1,0.5,0.2,1.4,0.1,2.1h-12
	c0.1-0.7,0.3-1.4,0.6-2c0.7-0.3,2-0.7,2.9-0.9v-16h-3.6c0-0.6,0.3-1.7,0.5-2.4c0.9-0.3,2.1-0.6,3-0.8v-2.4c0-6.1,3.7-8.6,8-8.6
	c1.4,0,3.2,0.2,4.9,0.8c0.1,0.5,0.1,1,0.1,1.5c0,1.4-0.3,3-0.6,4c-0.7,0-2.1-0.3-2.7-0.7v-3c-0.4-0.2-1-0.3-1.4-0.3
	c-2.4,0-4.3,1.2-4.3,5.9v3.4H279.8z"/>
<path class="st0" d="M302.9,393.7c0,7.6-4,11.9-10.3,11.9c-6.6,0-10.3-4.1-10.3-11.9c0-6.9,4.4-11.2,10.3-11.2
	C298.8,382.6,302.9,386.5,302.9,393.7z M292.6,402.9c4.2,0,6.2-3.5,6.2-9.1c0-4.8-2.4-8.5-6.2-8.5c-4,0-6.2,3.4-6.2,8.5
	C286.4,399.3,288.8,402.9,292.6,402.9z"/>
<path class="st0" d="M314.2,387.4c0.6-2.8,2.9-4.8,5.9-4.8c0.5,0,1.5,0.1,2,0.4c0.3,0.5,0.6,1.6,0.6,2.7c0,0.5,0,0.9-0.1,1.2
	c-0.8-0.5-2-0.8-3.1-0.8c-2.1,0-4.1,1.1-5.2,3.7v12.1c1.3,0.1,3.4,0.5,4.5,0.8c0.1,0.5,0.2,1.4,0.1,2.1h-12c0.1-0.7,0.3-1.4,0.6-2
	c0.7-0.3,2-0.7,2.9-0.9v-16.1H307c0-0.8,0.4-1.7,0.8-2.4c1-0.4,2.4-0.6,3.8-0.6c0.8,0,1.5,0.1,2.1,0.3v4.3H314.2z"/>
<path class="st0" d="M333.9,404.8c0-0.7,0.3-1.8,0.5-2.4c0.8-0.2,2.5-0.5,3.5-0.6v-25.5c-1,0-2.6-0.2-3.3-0.3
	c-0.1-0.6-0.2-2-0.1-2.6H356v6.7c-0.8,0-1.8-0.1-2.5-0.3c-0.2-0.9-0.5-2.7-0.5-3.6h-10.8v11.5h8.6c0-0.6,0.3-1.9,0.5-2.4
	c0.6-0.2,1.8-0.4,2.6-0.4v8.3c-0.8,0.1-1.9,0-2.6-0.2c-0.2-0.8-0.4-1.9-0.4-2.6h-8.6V402h11c0.1-1.2,0.3-2.9,0.5-3.9
	c0.7-0.2,2-0.3,2.8-0.3v7.1H333.9z"/>
<path class="st0" d="M367.3,400.3c-0.4,0.5-0.9,1.2-1.4,1.7c0.7,0,2.1,0.3,2.8,0.5c0.3,0.5,0.4,1.6,0.4,2.3h-10
	c0.1-0.7,0.3-1.5,0.6-2.1c0.6-0.3,2-0.8,2.8-1l6.3-8.1l-5.7-7.2c-0.9-0.2-1.8-0.5-2.4-0.8c-0.3-0.6-0.5-1.6-0.5-2.3h9.4
	c0,0.7-0.1,1.7-0.3,2.3c-0.5,0.2-1.4,0.5-2.2,0.5c0.6,0.5,1.2,1.1,1.8,1.8l2.8,3.6l2.8-3.8c0.3-0.5,0.9-1.1,1.4-1.6
	c-0.8-0.1-1.7-0.3-2.4-0.6c-0.2-0.7-0.4-1.5-0.4-2.3h8.2c0,0.6-0.2,1.8-0.5,2.4c-0.6,0.2-1.4,0.4-2,0.5l-5.7,7.5l6.5,8.4
	c0.6,0,1.9,0.3,2.6,0.5c0.2,0.5,0.5,1.7,0.5,2.3h-10.2c0.1-0.8,0.4-1.7,0.6-2.3c0.6-0.2,1.9-0.5,2.5-0.5c-0.6-0.6-1.5-1.4-2-2.1
	l-3.2-4.1L367.3,400.3z"/>
<path class="st0" d="M391.5,412.4c1.2,0.1,3.3,0.5,4.3,0.8c0.1,0.5,0.2,1.4,0.1,2.1h-11.9c0.1-0.7,0.3-1.4,0.6-2
	c0.7-0.3,2-0.7,2.9-0.9v-26.5h-3.3c0-0.8,0.4-1.7,0.8-2.4c1-0.4,2.4-0.6,3.8-0.6c0.8,0,1.5,0.1,2.1,0.3v2.9h0.5
	c1.1-1.8,2.9-3.5,6.7-3.5c4,0,8.6,2.7,8.6,10.9c0,7.3-4.6,12.1-11.1,12.1c-1.3,0-3-0.4-4-1.1V412.4z M391.5,402.2
	c1.1,0.4,2.4,0.6,3.8,0.6c5,0,7.2-3.6,7.2-8.8c0-5.4-2.4-8.5-5.8-8.5c-2.6,0-4.2,1.4-5.2,2.8V402.2z"/>
<path class="st0" d="M415.2,394.6c0.1,4.8,3.1,7.8,7.4,7.8c1.9,0,4.7-0.6,6.3-1.3c0.1,0.7-0.2,1.9-0.6,2.6c-1.6,0.9-4.3,1.9-7.1,1.9
	c-6.5,0-10.2-4.8-10.2-11.1c0-6.7,4.1-11.9,10.5-11.9c5.4,0,7.7,3.9,7.7,9.6c0,0.8,0,1.6-0.1,2.4H415.2z M425.2,392
	c0.3-3.1-0.6-6.9-4.4-6.9c-3.2,0-5.3,2.8-5.6,6.9H425.2z"/>
<path class="st0" d="M440.4,387.4c0.6-2.8,2.9-4.8,5.9-4.8c0.5,0,1.5,0.1,2,0.4c0.3,0.5,0.6,1.6,0.6,2.7c0,0.5,0,0.9-0.1,1.2
	c-0.8-0.5-2-0.8-3.1-0.8c-2.1,0-4.1,1.1-5.2,3.7v12.1c1.3,0.1,3.4,0.5,4.5,0.8c0.1,0.5,0.2,1.4,0.1,2.1h-12c0.1-0.7,0.3-1.4,0.6-2
	c0.7-0.3,2-0.7,2.9-0.9v-16.1h-3.3c0-0.8,0.4-1.7,0.8-2.4c1-0.4,2.4-0.6,3.8-0.6c0.8,0,1.5,0.1,2.1,0.3v4.3H440.4z"/>
<path class="st0" d="M451.3,385.9c0-0.8,0.4-1.7,0.8-2.4c1-0.4,2.6-0.6,4.1-0.6c0.8,0,1.7,0.1,2.4,0.3V402c1.1,0.1,2.6,0.4,3.6,0.6
	c0.1,0.4,0.1,0.9,0.1,1.4c0,0.3,0,0.5,0,0.8h-11.1c0.1-0.7,0.3-1.4,0.6-2c0.7-0.3,2-0.7,2.9-0.9v-16.1H451.3z M459.3,375.3
	c0,1.7-1,2.7-2.5,2.7c-1.7,0-2.6-0.9-2.6-2.7c0-1.5,1.1-2.5,2.6-2.5C458.2,372.8,459.3,373.7,459.3,375.3z"/>
<path class="st0" d="M469.7,394.6c0.1,4.8,3.1,7.8,7.4,7.8c1.9,0,4.7-0.6,6.3-1.3c0.1,0.7-0.2,1.9-0.6,2.6c-1.6,0.9-4.3,1.9-7.1,1.9
	c-6.5,0-10.2-4.8-10.2-11.1c0-6.7,4.1-11.9,10.5-11.9c5.4,0,7.7,3.9,7.7,9.6c0,0.8,0,1.6-0.1,2.4H469.7z M479.6,392
	c0.3-3.1-0.6-6.9-4.4-6.9c-3.2,0-5.3,2.8-5.6,6.9H479.6z"/>
<path class="st0" d="M494.9,402.1c1.1,0.1,2.5,0.3,3.3,0.6c0.1,0.5,0.2,1.5,0.1,2.2h-10.9c0.1-0.7,0.3-1.4,0.6-2
	c0.7-0.3,2-0.7,2.9-0.9v-16.1h-3.3c0-0.8,0.4-1.7,0.8-2.4c1-0.4,2.4-0.6,3.8-0.6c0.8,0,1.5,0.1,2.1,0.3v3.3h0.5
	c0.8-1.5,3.2-3.8,7.3-3.8c3.6,0,6.7,1.1,6.7,8.1c0,3.8-0.1,7.5-0.3,11.4c1.2,0.1,2.8,0.3,3.7,0.6c0.1,0.4,0.1,0.9,0.1,1.4
	c0,0.3,0,0.5,0,0.8h-10.7c0.1-0.7,0.3-1.4,0.6-2c0.7-0.3,1.8-0.7,2.6-0.9v-10.6c0-3.5-1.1-5.7-4.3-5.7c-2.3,0-4.7,1.6-5.7,2.9V402.1
	z"/>
<path class="st0" d="M518.1,377.8c0.7-0.4,2.1-0.7,3-0.7v6.2h6.6c0.1,0.5,0.2,1.9,0.1,2.6h-6.7v12.4c0,2.9,0.4,4.2,2.9,4.2
	c1.3,0,2.8-0.2,4.2-0.6c0,0.2,0,0.5,0,0.6c0,0.6-0.2,1.4-0.5,1.8c-1.8,0.8-3.8,1.2-5.6,1.2c-3.5,0-5.2-1.9-5.2-6.6
	c0-2.7,0-8.5,0.2-13.1h-3.1c0-0.6,0.3-1.8,0.5-2.4c0.7-0.3,1.8-0.6,2.6-0.8L518.1,377.8z"/>
<path class="st0" d="M530.9,385.9c0-0.8,0.4-1.7,0.8-2.4c1-0.4,2.6-0.6,4.1-0.6c0.8,0,1.7,0.1,2.4,0.3V402c1.1,0.1,2.6,0.4,3.6,0.6
	c0.1,0.4,0.1,0.9,0.1,1.4c0,0.3,0,0.5,0,0.8h-11.1c0.1-0.7,0.3-1.4,0.6-2c0.7-0.3,2-0.7,2.9-0.9v-16.1H530.9z M538.8,375.3
	c0,1.7-1,2.7-2.5,2.7c-1.7,0-2.6-0.9-2.6-2.7c0-1.5,1.1-2.5,2.6-2.5C537.7,372.8,538.8,373.7,538.8,375.3z"/>
<path class="st0" d="M557.6,402.1c-1.2,2.2-3.6,3.4-6.3,3.4c-3.3,0-6.4-1.9-6.4-6.1c0-4.7,3.9-7.1,8.4-7.1c1.4,0,3.1,0.3,4.2,0.8
	v-2.4c0-3.3-1.4-5.1-4.3-5.1c-1.9,0-5,1.1-6.6,2.2c-0.2-0.4-0.2-1-0.2-1.5c0-0.9,0.2-1.8,0.5-2.3c1.5-0.9,5-1.6,7.4-1.6
	c4.9,0,7.1,2.4,7.1,8.6v8.8c0,0.9,0.2,2,0.6,2.4c0.7,0,2.3-0.3,3.1-0.5c0,0.2,0,0.4,0,0.5c0,0.7-0.2,1.5-0.5,2
	c-1,0.6-3.3,1.3-4.9,1.3c-0.9-0.5-1.8-2-1.9-3.4H557.6z M557.5,395.2c-0.9-0.2-2.3-0.4-3.2-0.4c-3.5,0-5.5,1.6-5.5,4
	c0,2.5,1.9,3.6,4.1,3.6c1.8,0,3.7-0.9,4.6-2.2V395.2z"/>
<path class="st0" d="M567.2,374.8c0-0.8,0.4-1.7,0.8-2.4c1-0.4,2.6-0.6,4.1-0.6c0.8,0,1.6,0.1,2.3,0.3v30c1.1,0.1,2.7,0.4,3.7,0.6
	c0.1,0.4,0.1,0.9,0.1,1.4c0,0.3,0,0.5,0,0.8h-11.2c0.1-0.7,0.3-1.4,0.6-2c0.7-0.3,2-0.7,2.9-0.9v-27.2H567.2z"/>
<path class="st0" d="M127.9,422c-1,0-2.6-0.2-3.3-0.3c-0.1-0.6-0.2-2-0.1-2.6h11.9c0.1,0.5,0.1,1.9-0.1,2.5
	c-1.1,0.2-2.9,0.3-4.2,0.4v25.6h11.2c0.1-1.4,0.3-3.4,0.5-4.5c0.7-0.2,2.1-0.3,2.9-0.3v7.7h-22.9c0-0.7,0.3-1.8,0.5-2.4
	c0.8-0.2,2.5-0.5,3.5-0.6V422z"/>
<path class="st0" d="M153.9,440.2c0.1,4.8,3.1,7.8,7.4,7.8c1.9,0,4.7-0.6,6.3-1.3c0.1,0.7-0.2,1.9-0.6,2.6c-1.6,0.9-4.3,1.9-7.1,1.9
	c-6.5,0-10.2-4.8-10.2-11.1c0-6.7,4.1-11.9,10.5-11.9c5.4,0,7.7,3.9,7.7,9.6c0,0.8,0,1.6-0.1,2.4H153.9z M163.9,437.6
	c0.3-3.1-0.6-6.9-4.4-6.9c-3.2,0-5.3,2.8-5.6,6.9H163.9z"/>
<path class="st0" d="M184.9,447.8c-1.2,2.2-3.6,3.4-6.3,3.4c-3.3,0-6.4-1.9-6.4-6.1c0-4.7,3.9-7.1,8.4-7.1c1.4,0,3.1,0.3,4.2,0.8
	v-2.4c0-3.3-1.4-5.1-4.3-5.1c-1.9,0-5,1.1-6.6,2.2c-0.2-0.4-0.2-1-0.2-1.5c0-0.9,0.2-1.8,0.5-2.3c1.5-0.9,5-1.6,7.4-1.6
	c4.9,0,7.1,2.4,7.1,8.6v8.8c0,0.9,0.2,2,0.6,2.4c0.7,0,2.3-0.3,3.1-0.5c0,0.2,0,0.4,0,0.5c0,0.7-0.2,1.5-0.5,2
	c-1,0.6-3.3,1.3-4.9,1.3c-0.9-0.5-1.8-2-1.9-3.4H184.9z M184.8,440.9c-0.9-0.2-2.3-0.4-3.2-0.4c-3.5,0-5.5,1.6-5.5,4
	c0,2.5,1.9,3.6,4.1,3.6c1.8,0,3.7-0.9,4.6-2.2V440.9z"/>
<path class="st0" d="M202,433c0.6-2.8,2.9-4.8,5.9-4.8c0.5,0,1.5,0.1,2,0.4c0.3,0.5,0.6,1.6,0.6,2.7c0,0.5,0,0.9-0.1,1.2
	c-0.8-0.5-2-0.8-3.1-0.8c-2.1,0-4.1,1.1-5.2,3.7v12.1c1.3,0.1,3.4,0.5,4.5,0.8c0.1,0.5,0.2,1.4,0.1,2.1h-12c0.1-0.7,0.3-1.4,0.6-2
	c0.7-0.3,2-0.7,2.9-0.9v-16.1h-3.3c0-0.8,0.4-1.7,0.8-2.4c1-0.4,2.4-0.6,3.8-0.6c0.8,0,1.5,0.1,2.1,0.3v4.3H202z"/>
<path class="st0" d="M220.2,447.7c1.1,0.1,2.5,0.3,3.3,0.6c0.1,0.5,0.2,1.5,0.1,2.2h-10.9c0.1-0.7,0.3-1.4,0.6-2
	c0.7-0.3,2-0.7,2.9-0.9v-16.1H213c0-0.8,0.4-1.7,0.8-2.4c1-0.4,2.4-0.6,3.8-0.6c0.8,0,1.5,0.1,2.1,0.3v3.3h0.5
	c0.8-1.5,3.2-3.8,7.3-3.8c3.6,0,6.7,1.1,6.7,8.1c0,3.8-0.1,7.5-0.3,11.4c1.2,0.1,2.8,0.3,3.7,0.6c0.1,0.4,0.1,0.9,0.1,1.4
	c0,0.3,0,0.5,0,0.8h-10.7c0.1-0.7,0.3-1.4,0.6-2c0.7-0.3,1.8-0.7,2.6-0.9V437c0-3.5-1.1-5.7-4.3-5.7c-2.3,0-4.7,1.6-5.7,2.9V447.7z"
	/>
<path class="st0" d="M240.4,431.5c0-0.8,0.4-1.7,0.8-2.4c1-0.4,2.6-0.6,4.1-0.6c0.8,0,1.7,0.1,2.4,0.3v18.9c1.1,0.1,2.6,0.4,3.6,0.6
	c0.1,0.4,0.1,0.9,0.1,1.4c0,0.3,0,0.5,0,0.8h-11.1c0.1-0.7,0.3-1.4,0.6-2c0.7-0.3,2-0.7,2.9-0.9v-16.1H240.4z M248.3,421
	c0,1.7-1,2.7-2.5,2.7c-1.7,0-2.6-0.9-2.6-2.7c0-1.5,1.1-2.5,2.6-2.5S248.3,419.4,248.3,421z"/>
<path class="st0" d="M261.4,447.7c1.1,0.1,2.5,0.3,3.3,0.6c0.1,0.5,0.2,1.5,0.1,2.2H254c0.1-0.7,0.3-1.4,0.6-2
	c0.7-0.3,2-0.7,2.9-0.9v-16.1h-3.3c0-0.8,0.4-1.7,0.8-2.4c1-0.4,2.4-0.6,3.8-0.6c0.8,0,1.5,0.1,2.1,0.3v3.3h0.5
	c0.8-1.5,3.2-3.8,7.3-3.8c3.6,0,6.7,1.1,6.7,8.1c0,3.8-0.1,7.5-0.3,11.4c1.2,0.1,2.8,0.3,3.7,0.6c0.1,0.4,0.1,0.9,0.1,1.4
	c0,0.3,0,0.5,0,0.8h-10.7c0.1-0.7,0.3-1.4,0.6-2c0.7-0.3,1.8-0.7,2.6-0.9V437c0-3.5-1.1-5.7-4.3-5.7c-2.3,0-4.7,1.6-5.7,2.9V447.7z"
	/>
<path class="st0" d="M285.3,450c-1.2-0.4-2.2-1.6-2.2-3.2c0-1.5,1.1-3.1,2.5-3.8v-0.2c-1.9-1.1-2.9-3.4-2.9-6.4c0-5,3.8-8.1,8.7-8.1
	c2,0,3.8,0.5,5.1,1.3c0.8-0.5,2.7-0.9,4.4-0.9c0.7,0,1.4,0.1,1.9,0.3c0.2,0.6,0.4,1.9,0.4,2.7h-4.5c0.8,1.2,1.3,2.8,1.3,4.7
	c0,5-3.3,8.1-8.6,8.1c-1.3,0-2.6-0.1-3.7-0.5c-0.4,0.4-0.7,1.2-0.7,1.9c0,1.8,2.4,2.1,6.6,2.1c5.2,0,9.3,1.1,9.3,6
	c0,5.4-5.2,8.1-11.4,8.1c-5.3,0-10.2-2.2-10.2-6.8c0-2.6,2.1-4.4,3.9-4.8V450z M285.1,454.5c0,3.2,3.7,4.8,7,4.8
	c3.6,0,6.9-1.6,6.9-4.7c0-2.3-1.7-3.4-6.4-3.4c-1.6,0-3.5-0.1-5.2-0.5C285.9,451.6,285.1,453,285.1,454.5z M291.4,442
	c3.1,0,4.6-2.2,4.6-5.7c0-3.3-1.8-5.7-4.6-5.7c-3.2,0-4.7,2.1-4.7,5.7C286.7,439.7,288.4,442,291.4,442z"/>
<path class="st0" d="M328.3,447.8c-1.2,2.2-3.6,3.4-6.3,3.4c-3.3,0-6.4-1.9-6.4-6.1c0-4.7,3.9-7.1,8.4-7.1c1.4,0,3.1,0.3,4.2,0.8
	v-2.4c0-3.3-1.4-5.1-4.3-5.1c-1.9,0-5,1.1-6.6,2.2c-0.2-0.4-0.2-1-0.2-1.5c0-0.9,0.2-1.8,0.5-2.3c1.5-0.9,5-1.6,7.4-1.6
	c4.9,0,7.1,2.4,7.1,8.6v8.8c0,0.9,0.2,2,0.6,2.4c0.7,0,2.3-0.3,3.1-0.5c0,0.2,0,0.4,0,0.5c0,0.7-0.2,1.5-0.5,2
	c-1,0.6-3.3,1.3-4.9,1.3c-0.9-0.5-1.8-2-1.9-3.4H328.3z M328.2,440.9c-0.9-0.2-2.3-0.4-3.2-0.4c-3.5,0-5.5,1.6-5.5,4
	c0,2.5,1.9,3.6,4.1,3.6c1.8,0,3.7-0.9,4.6-2.2V440.9z"/>
<path class="st0" d="M345.5,447.7c1.1,0.1,2.5,0.3,3.3,0.6c0.1,0.5,0.2,1.5,0.1,2.2H338c0.1-0.7,0.3-1.4,0.6-2
	c0.7-0.3,2-0.7,2.9-0.9v-16.1h-3.3c0-0.8,0.4-1.7,0.8-2.4c1-0.4,2.4-0.6,3.8-0.6c0.8,0,1.5,0.1,2.1,0.3v3.3h0.5
	c0.8-1.5,3.2-3.8,7.3-3.8c3.6,0,6.7,1.1,6.7,8.1c0,3.8-0.1,7.5-0.3,11.4c1.2,0.1,2.8,0.3,3.7,0.6c0.1,0.4,0.1,0.9,0.1,1.4
	c0,0.3,0,0.5,0,0.8h-10.7c0.1-0.7,0.3-1.4,0.6-2c0.7-0.3,1.8-0.7,2.6-0.9V437c0-3.5-1.1-5.7-4.3-5.7c-2.3,0-4.7,1.6-5.7,2.9V447.7z"
	/>
<path class="st0" d="M381,420.4h-3.3c0-0.8,0.4-1.7,0.8-2.4c1-0.4,2.6-0.6,4.1-0.6c0.8,0,1.6,0.1,2.3,0.3v26.8c0,1,0.1,2.3,0.4,3.2
	h3.4c0,0.2,0,0.5,0,0.6c0,0.6-0.2,1.4-0.4,1.8c-1.6,0.5-4.8,0.9-6.1,0.9c-0.5-0.9-0.8-2-0.9-3.3h-0.2c-1.2,1.8-3,3.5-6.8,3.5
	c-3.9,0-8.4-2.7-8.4-10.9c0-7.3,4.5-12.1,11-12.1c1.4,0,3.2,0.4,4.1,1.1V420.4z M381.1,431.6c-1.1-0.4-2.4-0.6-3.8-0.6
	c-5,0-7.2,3.5-7.2,8.8c0,5.4,2.4,8.5,5.8,8.5c2.6,0,4.2-1.3,5.2-2.7V431.6z"/>
<path class="st0" d="M421.3,422c-1.6-0.7-3.2-1-4.9-1c-6,0-10.9,4.5-10.9,13.2c0,9.3,4.4,13.6,10.8,13.6c2.6,0,6.2-0.8,8.5-1.6
	c0.1,0.8-0.2,2.2-0.5,2.9c-2.4,1.2-6.2,2.3-9.6,2.3c-8.1,0-13.6-6.7-13.6-15.9c0-10.9,7.1-17.3,15.6-17.3c3.3,0,6.1,0.6,8.4,1.7
	c0,2.4-0.2,5.6-0.5,7.5c-0.9,0-2.4-0.3-3.2-0.7V422z"/>
<path class="st0" d="M441,447.8c-1.2,2.2-3.6,3.4-6.3,3.4c-3.3,0-6.4-1.9-6.4-6.1c0-4.7,3.9-7.1,8.4-7.1c1.4,0,3.1,0.3,4.2,0.8v-2.4
	c0-3.3-1.4-5.1-4.3-5.1c-1.9,0-5,1.1-6.6,2.2c-0.2-0.4-0.2-1-0.2-1.5c0-0.9,0.2-1.8,0.5-2.3c1.5-0.9,5-1.6,7.4-1.6
	c4.9,0,7.1,2.4,7.1,8.6v8.8c0,0.9,0.2,2,0.6,2.4c0.7,0,2.3-0.3,3.1-0.5c0,0.2,0,0.4,0,0.5c0,0.7-0.2,1.5-0.5,2
	c-1,0.6-3.3,1.3-4.9,1.3c-0.9-0.5-1.8-2-1.9-3.4H441z M440.9,440.9c-0.9-0.2-2.3-0.4-3.2-0.4c-3.5,0-5.5,1.6-5.5,4
	c0,2.5,1.9,3.6,4.1,3.6c1.8,0,3.7-0.9,4.6-2.2V440.9z"/>
<path class="st0" d="M458.1,433c0.6-2.8,2.9-4.8,5.9-4.8c0.5,0,1.5,0.1,2,0.4c0.3,0.5,0.6,1.6,0.6,2.7c0,0.5,0,0.9-0.1,1.2
	c-0.8-0.5-2-0.8-3.1-0.8c-2.1,0-4.1,1.1-5.2,3.7v12.1c1.3,0.1,3.4,0.5,4.5,0.8c0.1,0.5,0.2,1.4,0.1,2.1h-12c0.1-0.7,0.3-1.4,0.6-2
	c0.7-0.3,2-0.7,2.9-0.9v-16.1H451c0-0.8,0.4-1.7,0.8-2.4c1-0.4,2.4-0.6,3.8-0.6c0.8,0,1.5,0.1,2.1,0.3v4.3H458.1z"/>
<path class="st0" d="M473.4,440.2c0.1,4.8,3.1,7.8,7.4,7.8c1.9,0,4.7-0.6,6.3-1.3c0.1,0.7-0.2,1.9-0.6,2.6c-1.6,0.9-4.3,1.9-7.1,1.9
	c-6.5,0-10.2-4.8-10.2-11.1c0-6.7,4.1-11.9,10.5-11.9c5.4,0,7.7,3.9,7.7,9.6c0,0.8,0,1.6-0.1,2.4H473.4z M483.3,437.6
	c0.3-3.1-0.6-6.9-4.4-6.9c-3.2,0-5.3,2.8-5.6,6.9H483.3z"/>
<path class="st0" d="M495.9,440.2c0.1,4.8,3.1,7.8,7.4,7.8c1.9,0,4.7-0.6,6.3-1.3c0.1,0.7-0.2,1.9-0.6,2.6c-1.6,0.9-4.3,1.9-7.1,1.9
	c-6.5,0-10.2-4.8-10.2-11.1c0-6.7,4.1-11.9,10.5-11.9c5.4,0,7.7,3.9,7.7,9.6c0,0.8,0,1.6-0.1,2.4H495.9z M505.8,437.6
	c0.3-3.1-0.6-6.9-4.4-6.9c-3.2,0-5.3,2.8-5.6,6.9H505.8z"/>
<path class="st0" d="M521,433c0.6-2.8,2.9-4.8,5.9-4.8c0.5,0,1.5,0.1,2,0.4c0.3,0.5,0.6,1.6,0.6,2.7c0,0.5,0,0.9-0.1,1.2
	c-0.8-0.5-2-0.8-3.1-0.8c-2.1,0-4.1,1.1-5.2,3.7v12.1c1.3,0.1,3.4,0.5,4.5,0.8c0.1,0.5,0.2,1.4,0.1,2.1h-12c0.1-0.7,0.3-1.4,0.6-2
	c0.7-0.3,2-0.7,2.9-0.9v-16.1h-3.3c0-0.8,0.4-1.7,0.8-2.4c1-0.4,2.4-0.6,3.8-0.6c0.8,0,1.5,0.1,2.1,0.3v4.3H521z"/>
<path class="st0" d="M543.5,431.1c-0.6-0.3-1.7-0.5-2.7-0.5c-2.4,0-3.7,1.1-3.7,2.8c0,5.1,10.5,3.5,10.5,11.4c0,4.7-3.9,6.5-8.1,6.5
	c-2.6,0-5-0.6-6.9-1.7c-0.1-0.5-0.2-1.4-0.2-2.2c0-1.1,0.2-2.4,0.5-3.2c1,0,2.3,0.1,3.3,0.4v3.1c1,0.7,2.4,1,3.8,1
	c2.3,0,3.8-1.4,3.8-3.4c0-5.4-10.6-3.4-10.6-11.4c0-3.3,3-5.7,7.5-5.7c2.1,0,4.3,0.4,6.4,1.2c0.1,0.4,0.1,0.9,0.1,1.4
	c0,1.3-0.2,2.7-0.5,3.7c-1,0-2.3-0.2-3-0.7V431.1z"/>
<g>
	<rect x="127.1" y="316.6" class="st1" width="55.8" height="9.2"/>
</g>
<g>
	<path d="M51.9,380.5c-2.8-3.8-5-8.6-6.8-13.7c-0.9-2.8-1.6-5.6-2.2-8.5c-1.4-9.4-0.6-18.7-0.8-28.1l0-14.1
		c58-0.1,66.2,0.1,68.2,0.1l0.1,10.2c-0.4,11.3,1,22.7-1.1,34c-1.4,6.7-3.9,13.4-7.3,18.4c-5.6,9.2-16.3,18.6-25.6,23.8
		C69,398,57.8,389.4,51.9,380.5z"/>
	<path class="st2" d="M62.6,390.3c-1.5-1.5-3.4-3.1-4.8-4.9c-5.2-5.8-8.7-12.2-11.2-20.2c-0.3-1.4-0.8-2.7-1.1-4.1
		c-1.1-4.9-1.6-10.2-1.2-15h42.1l22.1,0.1c0.1,7.2-0.7,14.4-3.1,21.5c-4.4,15-17.2,25.4-29.1,33.5C76.5,401.2,67.2,394.3,62.6,390.3
		z"/>
	<path d="M95,379.7h0.4c0.4-0.8-0.2-1.8,0-2.8c0-0.1,0.1-0.2,0.3-0.3c0.3,0.1,0.5-0.3,0.8-0.1l-0.4,1.4l1.8,0.1l-0.3-1.2
		c0,0,0,0,0.1-0.1l1.1,0.1c0.1,0,0.2,0,0.2-0.1c-0.3-0.4-0.2-0.9,0-1.4c-0.1,0-0.1-0.1-0.2-0.1l-1.1,0.3c-0.3-0.3,0.1-0.7,0.2-1.1
		c0-0.2,0.2-0.4,0.1-0.4h-1.7c-0.1,0.4,0.5,1.1,0.2,1.5l-1.1-0.1c-0.6-4.2,0-8.9,0.1-13.4c0.3-0.8,0-1.6,0.4-2.1
		c0.4-0.1,0.5-0.1,0.8-0.2c0.3,0.2,0,0.8-0.1,1.2c0,0.1-0.1,0.1-0.1,0.2l0.1,0.1l1.6,0l-0.2-1.3c0-0.1,0-0.1,0.1-0.1l1.3,0.3v-1.8
		l-1.2,0.4l0.3-1.6h-1.7l0.2,1.2c0,0.1-0.1,0.2-0.1,0.3l-0.9-0.1l0-2.1l-2.7,0.3c-0.4-0.2,0.1-0.8,0-1.2c-2.3,0.8-5.3,0.7-7.7-0.4
		c-0.8-0.1-1.4-0.5-2-0.8c-2.2-0.8-4.7-1.1-6.7,0c-0.1,0.1-0.2,0.2-0.4,0.2l-0.4,0.7c-1.4-1.4-4.1-2.1-6.3-1.6
		c-1.4,0.1-2.5,0.8-3.6,1.3c-2,0.8-3.8,0.9-5.8,0.4c-0.2-0.1-0.2-0.1-0.4-0.1l0,1c0,0.1-0.1,0.3-0.3,0.4l-2.5-0.2l0.1,2
		c-0.1,0.4-0.6,0.4-1,0.4l0.2-1.6l-1.5,0l0.2,1.3l-1.2-0.2l-0.1,1.6l1.2-0.2c0.4,0.4-0.1,1,0,1.6l1.5,0.1l-0.4-1.5
		c0.3-0.2,0.8,0,1.1,0.2c0.2,0.4,0.2,0.8,0.3,1.2c0.3,2.1,0.2,4.2,0.2,6.2c0,1.5,0,2.9-0.1,4.4c0.1,0.8,0.1,1.5,0,2.2
		c-0.1,0.4-0.7,0.4-1,0.6h-0.2l0.1-1.5l-1.4,0l0.4,1.3c-0.1,0.2-0.5,0.1-0.6,0c-0.4,0-0.7,0-0.9-0.1l0,1.5l1.3-0.3
		c0.1,0,0.2,0.1,0.2,0.3l-0.3,1.2l1.6,0l-0.3-1.6c0.3-0.1,0.6,0.1,0.9,0.1c0.2,0,0.3,0.2,0.3,0.4l0.1,3.6c5.4-0.6,10.8-1,16.3-2
		c0.9,0.7,2.3,1.3,3.6,0.8c0.6-0.2,0.8-0.6,1.3-0.9l3.1,0.5L95,379.7"/>
	<path class="st3" d="M93.7,378.4c-0.1,0-10.4-1.9-15.4-2.2c0,0,0,0.1,0,0.1c-0.1,0.3-0.4,0.6-0.7,0.7c-1,0.4-2.1,0.2-2.7-0.4
		l-0.2-0.4c-2.2,0.2-4.4,0.7-6.7,0.9c-3.1,0.4-6.1,0.8-9.1,0.7c0.1-0.9,0-1.8,0.2-2.8c0-3.1,0.2-6.2,0.2-9.3
		c0.1-2.7-0.4-5.5-0.4-8.1l1.3,0.1c0.6,2.9,0.4,5.9,0.6,8.8c0.1,3.4,0,6.7-0.7,10.1c0,0.1,0.2,0.3,0.4,0.4c5.4,1.1,9.4-4.1,14.8-2.5
		c0.9,0.6,1.6,0.6,2.5,0c4.1-1.6,7,1.7,10.8,2.3c1.4,0.3,2.8,0.6,4.2,0.4c0-1.8-0.3-4.3-0.3-5.8c-0.1-2.8-0.2-5.4-0.2-8.2
		c0.4-1.8,0.3-3.7,0.8-5.4l1.5-0.2c0,0,0.1,0.1,0.1,0.2c-0.7,6.8-0.7,13.6-0.7,20.4C93.8,378.4,93.8,378.4,93.7,378.4"/>
	<path d="M77.8,376.2c0.1-0.5-0.3-0.8-1.3-0.8c-1,0-1.4,0.3-1.4,0.8c0,0.5,0.4,0.7,1.2,0.8C77,377,77.7,376.9,77.8,376.2z"/>
	<path class="st0" d="M76.4,376.4c0.5,0,0.6-0.1,0.7-0.2c0-0.1-0.2-0.2-0.7-0.2c-0.5,0-0.5,0.2-0.5,0.3
		C75.8,376.4,75.9,376.4,76.4,376.4z"/>
	<path class="st0" d="M62,376c0.6-0.1,1.2-0.1,1.9-0.3c2.1-0.4,3.6-1.7,5.5-2.4c2-0.9,4.2-0.5,6,0.2l0-17.1c-1.2-1.6-3.7-2-5.8-1.6
		c-1.4,0.4-2.9,0.8-4.2,1.4c-1.4,0.4-2.8,0.8-4,0.5c0.7,6.3,1.2,12.7,0.3,19.1C61.8,375.9,61.9,376,62,376"/>
	<path class="st0" d="M90.3,376h0.8c0.2-2-0.2-4.3-0.1-6.3c-0.4-4.3,0-8.5,0.7-12.6c-1.7,0.3-3.9,0-5.6-0.6c-2.3-1-5.2-2.6-7.8-1.3
		c-0.7,0.4-1.4,0.7-1.6,1.5c-0.2,5.7,0,11.4-0.1,17.1c2.8-1.4,5.2-1,7.5,0c0.3,0.1,0.5,0.3,0.8,0.4C86.5,374.9,88.4,375.6,90.3,376"
		/>
	<path class="st2" d="M89.3,371.7l0.4-2.4l-1.1,0.6l-1.7,0.3c-0.1,0-0.1-0.1,0-0.2c0.2-0.4,0.5-0.6,0.8-0.9c1.4-1.2,2.3-2.8,2.2-4.8
		c0-0.8-0.2-1.6-0.4-2.4c-0.5-1.6-2-2.7-3.4-3.2c-1.5-0.4-3,0.1-4.1,0.8c-1.2,1.1-2,2.2-2.3,3.8c-0.4,2.3,0.7,4.5,1.8,6.1
		c0,0.1,0,0.2-0.1,0.2c-1-0.2-2.1-0.5-2.9-1.1c0,0.1,0,0.1,0,0.1c0.5,0.8,0.6,1.8,0.4,2.7c0.8-0.9,2.6-0.9,4-0.9c0,0,0.1,0,0.1-0.2
		c-0.6-1.2-1-2.4-1.4-3.8c-0.4-2.3-0.1-4.9,1.8-6.1c0.7-0.4,1.6-0.6,2.3-0.4c1.2,0.3,2.2,1.4,2.4,2.7c0.2,1.4,0.2,3.2-0.5,4.6
		c-0.7,1.3-1.2,2.8-2.1,3.7C86.6,371,88.3,370.9,89.3,371.7L89.3,371.7"/>
	<path class="st2" d="M67,371.2c0.1,0,0-0.3-0.3-0.4c-0.6-0.2-0.3-1.2-0.3-1.7c0.3-0.7,0.3-1.4,0.5-2c1.1-0.3,2.5-0.2,3.7-0.1
		c0.4,0.7,0.9,2,0.7,2.9c-0.2,0.6-0.7,0.7-0.9,1v0.2c1.5,0,2.8-0.6,4.3-0.2c0,0,0,0,0-0.1l-0.1-0.3l-0.5-0.3
		c-1.9-1.8-2.7-4.4-3.9-6.8c-0.6-1.1-1-2.5-1-3.8l-2.4,0.2c-0.2,0,0,0.2,0,0.2c0.7,0.4,0.9,1,0.8,1.7c-0.6,3.1-1.5,6.3-3,8.8
		l-0.6,0.5c0,0-0.2,0.2,0.4,0.2L67,371.2z"/>
	<path class="st0" d="M67.4,366.3l1.1-2.9c0.1,0,0.2,0,0.2,0c0.4,0.5,1.5,2.4,1.6,3C68.4,366.7,67.4,366.3,67.4,366.3z"/>
	<polygon class="st1" points="44.4,344 108.5,344 108.5,327.6 108.5,318.8 44.2,318.8 44.2,326.4 44.3,344 	"/>
	<path d="M74.8,342.2h3.4l0.1-1.8c0.4-0.4,1.1,0,1.6-0.1l0.1-4l-1.4-0.1c-0.4-0.7-0.1-1.7-0.2-2.5c0.7-0.3,1.8,0,2.8-0.1
		c0.4,0.3,0.1,1,0.2,1.5c1,0.5,2.4,0.1,3.5,0.3c0.4-0.4-0.1-1.2,0.1-1.6l1.8-0.1c0.4-1.3,0-2.9,0.1-4.3l-1.7-0.1
		c-0.4-0.4,0-1.3-0.3-1.9l-3.4-0.1l-0.4,1.8l-2.6,0c-0.1,0-0.3-0.2-0.3-0.3l0.1-2c0-0.2,0.3-0.3,0.5-0.2c0.4,0.1,0.6,0,0.9,0
		c0.4-1.1,0-2.6,0.1-3.9l-1.6-0.1c-0.4-0.5-0.1-1.3-0.1-1.9c-1.1-0.4-2.4,0-3.5-0.2l0,2c-0.4,0.4-1.1,0-1.6,0.1l-0.1,3.6
		c0.4,0.5,1,0,1.5,0.3l0.1,2.2c-0.8,0.3-1.8,0-2.7,0.1c-0.3-0.4,0-1.2-0.2-1.8H68v1.6c-0.1,0.1-0.1,0.2-0.3,0.2h-1.4l-0.1,2.5v1.9
		l1.5,0.2c0.1,0,0.3,0.1,0.3,0.3v1.2l3.5,0.1l0.1-1.5c0.8-0.3,2-0.1,2.8,0l0.1,2.4c-0.4,0.4-1.1,0-1.6,0.2l-0.1,3.9l1.8,0.3v1.9
		H74.8"/>
	<path d="M52.6,338.9c-0.5-0.8-0.7-1.9-0.5-2.2c-2.6,0.6-3.7-0.1-5.8-0.1c1.2-0.7,0.9-4.1,3.2-6c0,0-0.9,0-1.5-0.3
		c-0.7-0.4-1.9-4.2-3.1-5c1.7,0.4,4.6,0.2,5.1,0.3c0.5,0.1,0.9,0.1,1.4,0.5c0.9-3.2,3.3-3.4,4.1-6.4c0.4,2.7,2.8,4,2.6,6.9
		c0.5-0.1,0.9-0.4,1.5-0.5c1.7-0.3,3.9-0.3,5.4-0.7c-1.1,1.2-1.9,3-2.7,4.3c-0.5,1.1-1.5,1-1.6,1.1c1.7,1.4,1.8,4.8,2.8,5.7
		c-1.7-0.2-2.5,1.1-5.9,0.2c0.3,0.6-0.1,1.3-0.6,2.3c-0.5,0.9-1.7,2.3-2.2,3.4C54.2,341.4,53.1,339.8,52.6,338.9z"/>
	<path class="st2" d="M75.5,340.9H77l0.1-1.7c0.4-0.4,1,0,1.5-0.2l0.1-1.6l-1.5,0c-0.3-1.5,0-3.1-0.1-4.7c1.5-0.4,3.3,0,5-0.2
		c0.4,0.4,0,1.1,0.1,1.6l1.6,0.1l0.1-1.6c0.4-0.4,1.2,0,1.9-0.2l0.1-2l-1.9-0.1c-0.4-0.4,0-1.2-0.1-1.8l-1.6-0.1l-0.1,1.7
		c-1.5,0.4-3.3,0.1-5,0.2c-0.3-1.4,0-3.2-0.1-4.7c0.4-0.4,1,0,1.6-0.2l0.1-1.7l-1.6-0.1c-0.3-0.4,0-1.1-0.1-1.6l-1.6-0.1l-0.1,1.6
		c-0.3,0.3-0.8,0-1.2,0.1l-0.1,1.7l1.2,0.1c0.4,1.4,0,3.2,0.1,4.7c-1.4,0.4-3.2,0.1-4.8,0.2c-0.3-0.4,0-1.2-0.1-1.8l-1.6-0.1v1.7
		c-0.4,0.4-1,0.1-1.4,0.2l0,1.9l1.2,0.1c0.4,0.4,0,1.1,0.2,1.7l1.6,0.1l0-1.2v-0.4c1.5-0.4,3.3,0,4.8-0.2c0.4,1.5,0,3.1,0.1,4.7
		c-0.3,0.3-0.9,0-1.3,0.2L74,339l1.3,0C75.7,339.4,75.4,340.2,75.5,340.9L75.5,340.9"/>
	<path class="st0" d="M50.2,335.8c0.9,0,1.8-0.1,2.7-0.4c0.7-0.4,1.5-1,1.6-2v-0.2c0-0.1,0.2-0.2,0.3-0.3l0.8,0
		c0.1,1.1,0.8,2,1.8,2.5c1.3,0.7,2.8,0.3,4.1,0.3c-0.2-1.2-0.9-2.8-1.6-3.9c-0.4-0.8-1.3-1.3-2.3-1.2c-0.4,0-0.5,0.2-0.7,0.3
		c-0.2,0-0.4-0.1-0.4-0.3c0-0.2-0.2-0.3-0.1-0.4c0.4-0.4,0.9-1.1,0.8-1.7c-0.1-1.9-1.2-3.6-1.8-5.3c0,0-0.1-0.1-0.1-0.1
		c-0.8,0.8-1.4,1.8-2.1,2.7c-0.5,1.3-0.7,3,0,4c0.1,0.2,0.2,0.2,0.3,0.4l-0.4,0.8c-0.8,0.2-2.1,0-2.7,1c-0.8,0.7-0.9,1.9-1.4,2.7
		c-0.2,0.4-0.4,0.8-0.6,1.2L50.2,335.8"/>
	<path class="st3" d="M53.7,332.8h0.2c0.2,0,0.2-0.4,0.1-0.5c-0.1-0.1-0.4-0.1-0.5,0c-0.1,0-0.1,0.1-0.1,0.1l0.1,0.4
		C53.7,332.8,53.7,332.8,53.7,332.8"/>
	<path class="st3" d="M55.9,332.8c0.1,0,0.2,0,0.2-0.1c0.1-0.1,0.1-0.1,0.1-0.2c0-0.1,0-0.1-0.1-0.2c-0.1-0.1-0.4-0.1-0.6,0v0.1
		C55.6,332.6,55.7,332.8,55.9,332.8"/>
	<path class="st3" d="M54.9,332.1l0.3,0c0.2-0.2,0.5-0.6,0.2-1c-0.1-0.2-0.3-0.3-0.4-0.4l-0.5,0.2l-0.2,0.5l0.2,0.5L54.9,332.1"/>
	<path class="st3" d="M53.4,331.8h0.2c0.1,0,0.1-0.1,0.1-0.2c0-0.2-0.2-0.4-0.4-0.5l-0.4,0.1v0.4c0,0.1,0.1,0.2,0.2,0.3H53.4"/>
	<path class="st3" d="M56.2,331.8h0.2c0.1-0.1,0.1-0.2,0.1-0.4c-0.1-0.2-0.2-0.4-0.4-0.4c0,0-0.1,0-0.1,0c-0.1,0-0.2,0.2-0.2,0.3
		L56.2,331.8L56.2,331.8"/>
	<path class="st3" d="M54.1,330.4h0.2c0.1,0,0.3-0.1,0.3-0.3v-0.1l0-0.1c-0.1-0.1-0.3-0.3-0.5-0.3c-0.2,0.2-0.3,0.4-0.2,0.6
		C53.8,330.2,53.8,330.4,54.1,330.4L54.1,330.4"/>
	<path class="st3" d="M55.5,330.4l0.3-0.1c0-0.1,0-0.3-0.1-0.4c0,0-0.1-0.1-0.2-0.1c-0.1,0-0.2,0-0.3,0.1l-0.2,0.3
		C55.1,330.3,55.3,330.4,55.5,330.4"/>
	<path d="M95.4,338.9c-0.5-0.8-0.7-1.9-0.5-2.2c-2.6,0.6-3.7-0.1-5.8-0.1c1.2-0.7,0.9-4.1,3.2-6c0,0-0.9,0-1.5-0.3
		c-0.7-0.4-1.9-4.2-3.1-5c1.7,0.4,4.6,0.2,5.1,0.3c0.5,0.1,0.9,0.1,1.4,0.5c0.9-3.2,3.3-3.4,4.1-6.4c0.4,2.7,2.8,4,2.6,6.9
		c0.5-0.1,0.9-0.4,1.5-0.5c1.7-0.3,3.9-0.3,5.4-0.7c-1.1,1.2-1.9,3-2.7,4.3c-0.5,1.1-1.5,1-1.6,1.1c1.7,1.4,1.8,4.8,2.8,5.7
		c-1.7-0.2-2.5,1.1-5.9,0.2c0.3,0.6-0.1,1.3-0.6,2.3c-0.5,0.9-1.7,2.3-2.2,3.4C97,341.4,95.9,339.8,95.4,338.9z"/>
	<path class="st0" d="M93.1,335.8c0.9,0,1.8-0.1,2.7-0.4c0.7-0.4,1.5-1,1.6-2v-0.2c0-0.1,0.2-0.2,0.3-0.3l0.8,0
		c0.1,1.1,0.8,2,1.8,2.5c1.3,0.7,2.8,0.3,4.1,0.3c-0.2-1.2-0.9-2.8-1.6-3.9c-0.4-0.8-1.3-1.3-2.3-1.2c-0.4,0-0.5,0.2-0.7,0.3
		c-0.2,0-0.4-0.1-0.4-0.3c0-0.2-0.2-0.3-0.1-0.4c0.4-0.4,0.9-1.1,0.8-1.7c-0.1-1.9-1.2-3.6-1.8-5.3c0,0-0.1-0.1-0.1-0.1
		c-0.8,0.8-1.4,1.8-2.1,2.7c-0.5,1.3-0.7,3,0,4c0.1,0.2,0.2,0.2,0.3,0.4l-0.4,0.8c-0.8,0.2-2.1,0-2.7,1c-0.8,0.7-0.9,1.9-1.4,2.7
		c-0.2,0.4-0.4,0.8-0.6,1.2L93.1,335.8"/>
	<path class="st3" d="M96.5,332.8h0.2c0.2,0,0.2-0.4,0.1-0.5c-0.1-0.1-0.4-0.1-0.5,0c-0.1,0-0.1,0.1-0.1,0.1l0.1,0.4
		C96.5,332.8,96.5,332.8,96.5,332.8"/>
	<path class="st3" d="M98.7,332.8c0.1,0,0.2,0,0.2-0.1c0.1-0.1,0.1-0.1,0.1-0.2c0-0.1,0-0.1-0.1-0.2c-0.1-0.1-0.4-0.1-0.6,0v0.1
		C98.4,332.6,98.5,332.8,98.7,332.8"/>
	<path class="st3" d="M97.7,332.1l0.3,0c0.2-0.2,0.5-0.6,0.2-1c-0.1-0.2-0.3-0.3-0.4-0.4l-0.5,0.2l-0.2,0.5l0.2,0.5L97.7,332.1"/>
	<path class="st3" d="M96.2,331.8h0.2c0.1,0,0.1-0.1,0.1-0.2c0-0.2-0.2-0.4-0.4-0.5l-0.4,0.1v0.4c0,0.1,0.1,0.2,0.2,0.3H96.2"/>
	<path class="st3" d="M99.1,331.8h0.2c0.1-0.1,0.1-0.2,0.1-0.4c-0.1-0.2-0.2-0.4-0.4-0.4c0,0-0.1,0-0.1,0c-0.1,0-0.2,0.2-0.2,0.3
		L99.1,331.8L99.1,331.8"/>
	<path class="st3" d="M96.9,330.4h0.2c0.1,0,0.3-0.1,0.3-0.3v-0.1l0-0.1c-0.1-0.1-0.3-0.3-0.5-0.3c-0.2,0.2-0.3,0.4-0.2,0.6
		C96.7,330.2,96.7,330.4,96.9,330.4L96.9,330.4"/>
	<path class="st3" d="M98.3,330.4l0.3-0.1c0-0.1,0-0.3-0.1-0.4c0,0-0.1-0.1-0.2-0.1c-0.1,0-0.2,0-0.3,0.1l-0.2,0.3
		C97.9,330.3,98.1,330.4,98.3,330.4"/>
</g>
<g>
	<path class="st2" d="M130.2,345.6c0-5,0-6-0.1-7c-0.1-1.1-0.3-1.7-1.4-1.9c-0.3-0.1-0.8-0.1-1.3-0.1c-0.4,0-0.6-0.1-0.6-0.3
		c0-0.2,0.2-0.3,0.7-0.3c1.8,0,3.9,0.1,4.5,0.1c1.1,0,3.7-0.1,4.7-0.1c2.1,0,4.3,0.2,6.1,1.4c0.9,0.6,2.3,2.3,2.3,4.5
		c0,2.5-1,4.7-4.4,7.4c3,3.7,5.2,6.7,7.2,8.7c1.9,1.9,3.2,2.2,3.7,2.3c0.4,0.1,0.7,0.1,0.9,0.1c0.3,0,0.4,0.1,0.4,0.3
		c0,0.3-0.2,0.3-0.6,0.3h-3.2c-1.9,0-2.7-0.2-3.6-0.6c-1.4-0.8-2.7-2.3-4.5-4.9c-1.3-1.8-2.9-4.1-3.3-4.6c-0.2-0.2-0.4-0.2-0.6-0.2
		l-2.9-0.1c-0.2,0-0.3,0.1-0.3,0.3v0.5c0,3.1,0,5.7,0.2,7.1c0.1,1,0.3,1.7,1.3,1.8c0.5,0.1,1.2,0.1,1.6,0.1c0.3,0,0.4,0.1,0.4,0.3
		c0,0.2-0.2,0.3-0.7,0.3c-1.9,0-4.4-0.1-4.9-0.1c-0.6,0-2.7,0.1-4.1,0.1c-0.4,0-0.7-0.1-0.7-0.3c0-0.2,0.1-0.3,0.5-0.3
		c0.5,0,0.9-0.1,1.2-0.1c0.7-0.1,0.8-0.9,1-1.8c0.2-1.4,0.2-4,0.2-7.1V345.6z M134.1,348.2c0,0.4,0.1,0.5,0.3,0.6
		c0.7,0.2,1.7,0.3,2.5,0.3c1.3,0,1.8-0.1,2.4-0.6c1-0.7,2-2.3,2-5c0-4.7-3.1-6.1-5.1-6.1c-0.8,0-1.4,0-1.8,0.1
		c-0.2,0.1-0.3,0.2-0.3,0.5V348.2z"/>
	<path class="st2" d="M155.2,345.6c0-5,0-6-0.1-7c-0.1-1.1-0.3-1.7-1.4-1.9c-0.3-0.1-0.8-0.1-1.3-0.1c-0.4,0-0.6-0.1-0.6-0.3
		c0-0.2,0.2-0.3,0.7-0.3c0.9,0,1.9,0,2.7,0c0.9,0,1.6,0.1,2.1,0.1c1.1,0,7.7,0,8.3,0c0.6-0.1,1.2-0.1,1.4-0.2c0.2,0,0.4-0.1,0.5-0.1
		c0.2,0,0.2,0.1,0.2,0.3c0,0.2-0.2,0.6-0.3,2.2c0,0.3-0.1,1.8-0.2,2.2c0,0.2-0.1,0.4-0.3,0.4c-0.2,0-0.3-0.2-0.3-0.5
		c0-0.2,0-0.8-0.2-1.2c-0.2-0.6-0.6-1-2.2-1.2c-0.6-0.1-4-0.1-4.7-0.1c-0.2,0-0.2,0.1-0.2,0.3v8.4c0,0.2,0,0.4,0.2,0.4
		c0.7,0,4.5,0,5.3-0.1c0.8-0.1,1.3-0.2,1.6-0.5c0.2-0.3,0.4-0.4,0.5-0.4c0.1,0,0.2,0.1,0.2,0.3c0,0.2-0.1,0.7-0.3,2.4
		c0,0.7-0.1,2-0.1,2.2c0,0.3,0,0.6-0.3,0.6c-0.2,0-0.3-0.1-0.3-0.3c0-0.3,0-0.8-0.1-1.2c-0.2-0.7-0.6-1.2-1.9-1.3
		c-0.6-0.1-3.9-0.1-4.7-0.1c-0.2,0-0.2,0.1-0.2,0.3v2.6c0,1.1,0,4.2,0,5.1c0.1,2.3,0.6,2.8,4,2.8c0.9,0,2.3,0,3.1-0.4
		c0.9-0.4,1.3-1.1,1.5-2.5c0.1-0.4,0.1-0.5,0.4-0.5c0.3,0,0.3,0.3,0.3,0.6c0,0.8-0.3,3-0.4,3.7c-0.2,0.9-0.5,0.9-1.8,0.9
		c-2.5,0-4.3-0.1-5.7-0.1c-1.4-0.1-2.5-0.1-3.5-0.1c-0.4,0-1.1,0-1.9,0c-0.8,0-1.6,0.1-2.3,0.1c-0.4,0-0.7-0.1-0.7-0.3
		c0-0.2,0.1-0.3,0.5-0.3c0.5,0,0.9-0.1,1.2-0.1c0.7-0.1,0.8-0.9,1-1.8c0.2-1.4,0.2-4,0.2-7.1V345.6z"/>
	<path class="st2" d="M176.2,345.6c0-5,0-6-0.1-7c-0.1-1.1-0.3-1.7-1.4-1.9c-0.3-0.1-0.8-0.1-1.3-0.1c-0.4,0-0.6-0.1-0.6-0.3
		c0-0.2,0.2-0.3,0.7-0.3c1.8,0,3.9,0.1,4.8,0.1c1,0,3.1-0.1,5.1-0.1c4.1,0,9.7,0,13.3,3.8c1.7,1.7,3.2,4.5,3.2,8.4
		c0,4.2-1.8,7.4-3.6,9.3c-1.5,1.6-5,3.9-11.1,3.9c-1.2,0-2.6-0.1-3.8-0.2c-1.3-0.1-2.4-0.2-3.3-0.2c-0.4,0-1.1,0-1.9,0
		c-0.8,0-1.6,0.1-2.3,0.1c-0.4,0-0.7-0.1-0.7-0.3c0-0.2,0.1-0.3,0.5-0.3c0.5,0,0.9-0.1,1.2-0.1c0.7-0.1,0.8-0.9,1-1.8
		c0.2-1.4,0.2-4,0.2-7.1V345.6z M180.4,349.2c0,3.5,0,6.1,0.1,6.7c0,0.8,0.1,2.2,0.4,2.5c0.4,0.6,1.7,1.3,4.3,1.3
		c3.4,0,5.6-0.7,7.6-2.4c2.1-1.8,2.8-4.8,2.8-8.3c0-4.2-1.8-6.9-3.2-8.3c-3.1-2.9-6.8-3.3-9.4-3.3c-0.7,0-1.9,0.1-2.2,0.2
		c-0.3,0.1-0.4,0.3-0.4,0.7c0,1.1,0,4,0,6.6V349.2z"/>
	<path class="st2" d="M207,345.6c0-5,0-6-0.1-7c-0.1-1.1-0.3-1.7-1.4-1.9c-0.3-0.1-0.8-0.1-1.3-0.1c-0.4,0-0.6-0.1-0.6-0.3
		c0-0.2,0.2-0.3,0.7-0.3c0.9,0,1.9,0,2.7,0c0.9,0,1.6,0.1,2.1,0.1c1.1,0,7.7,0,8.3,0c0.6-0.1,1.2-0.1,1.4-0.2c0.2,0,0.4-0.1,0.5-0.1
		c0.2,0,0.2,0.1,0.2,0.3c0,0.2-0.2,0.6-0.3,2.2c0,0.3-0.1,1.8-0.2,2.2c0,0.2-0.1,0.4-0.3,0.4c-0.2,0-0.3-0.2-0.3-0.5
		c0-0.2,0-0.8-0.2-1.2c-0.2-0.6-0.6-1-2.2-1.2c-0.6-0.1-4-0.1-4.7-0.1c-0.2,0-0.2,0.1-0.2,0.3v8.4c0,0.2,0,0.4,0.2,0.4
		c0.7,0,4.5,0,5.3-0.1c0.8-0.1,1.3-0.2,1.6-0.5c0.2-0.3,0.4-0.4,0.5-0.4c0.1,0,0.2,0.1,0.2,0.3c0,0.2-0.1,0.7-0.3,2.4
		c0,0.7-0.1,2-0.1,2.2c0,0.3,0,0.6-0.3,0.6c-0.2,0-0.3-0.1-0.3-0.3c0-0.3,0-0.8-0.1-1.2c-0.2-0.7-0.6-1.2-1.9-1.3
		c-0.6-0.1-3.9-0.1-4.7-0.1c-0.2,0-0.2,0.1-0.2,0.3v2.6c0,1.1,0,4.2,0,5.1c0.1,2.3,0.6,2.8,4,2.8c0.9,0,2.3,0,3.1-0.4
		c0.9-0.4,1.3-1.1,1.5-2.5c0.1-0.4,0.1-0.5,0.4-0.5c0.3,0,0.3,0.3,0.3,0.6c0,0.8-0.3,3-0.4,3.7c-0.2,0.9-0.5,0.9-1.8,0.9
		c-2.5,0-4.3-0.1-5.7-0.1c-1.4-0.1-2.5-0.1-3.5-0.1c-0.4,0-1.1,0-1.9,0c-0.8,0-1.6,0.1-2.3,0.1c-0.4,0-0.7-0.1-0.7-0.3
		c0-0.2,0.1-0.3,0.5-0.3c0.5,0,0.9-0.1,1.2-0.1c0.7-0.1,0.8-0.9,1-1.8c0.2-1.4,0.2-4,0.2-7.1V345.6z"/>
	<path class="st2" d="M227.9,345.6c0-5,0-6-0.1-7c-0.1-1.1-0.3-1.7-1.4-1.9c-0.3-0.1-0.8-0.1-1.3-0.1c-0.4,0-0.6-0.1-0.6-0.3
		c0-0.2,0.2-0.3,0.7-0.3c0.9,0,1.9,0,2.7,0c0.9,0,1.6,0.1,2.1,0.1c1.1,0,7.7,0,8.3,0c0.6-0.1,1.2-0.1,1.4-0.2c0.2,0,0.4-0.1,0.5-0.1
		c0.2,0,0.2,0.1,0.2,0.3c0,0.2-0.2,0.6-0.3,2.2c0,0.3-0.1,1.8-0.2,2.2c0,0.2-0.1,0.4-0.3,0.4c-0.2,0-0.3-0.2-0.3-0.5
		c0-0.2,0-0.8-0.2-1.2c-0.2-0.6-0.6-1-2.2-1.2c-0.6-0.1-4-0.1-4.7-0.1c-0.2,0-0.2,0.1-0.2,0.3v8.4c0,0.2,0,0.4,0.2,0.4
		c0.7,0,4.5,0,5.3-0.1c0.8-0.1,1.3-0.2,1.6-0.5c0.2-0.3,0.4-0.4,0.5-0.4c0.1,0,0.2,0.1,0.2,0.3c0,0.2-0.1,0.7-0.3,2.4
		c0,0.7-0.1,2-0.1,2.2c0,0.3,0,0.6-0.3,0.6c-0.2,0-0.3-0.1-0.3-0.3c0-0.3,0-0.8-0.1-1.2c-0.2-0.7-0.6-1.2-1.9-1.3
		c-0.6-0.1-3.9-0.1-4.7-0.1c-0.2,0-0.2,0.1-0.2,0.3v2.6c0,1.1,0,4.2,0,5.1c0.1,2.3,0.6,2.8,4,2.8c0.9,0,2.3,0,3.1-0.4
		c0.9-0.4,1.3-1.1,1.5-2.5c0.1-0.4,0.1-0.5,0.4-0.5c0.3,0,0.3,0.3,0.3,0.6c0,0.8-0.3,3-0.4,3.7c-0.2,0.9-0.5,0.9-1.8,0.9
		c-2.5,0-4.3-0.1-5.7-0.1c-1.4-0.1-2.5-0.1-3.5-0.1c-0.4,0-1.1,0-1.9,0c-0.8,0-1.6,0.1-2.3,0.1c-0.4,0-0.7-0.1-0.7-0.3
		c0-0.2,0.1-0.3,0.5-0.3c0.5,0,0.9-0.1,1.2-0.1c0.7-0.1,0.8-0.9,1-1.8c0.2-1.4,0.2-4,0.2-7.1V345.6z"/>
	<path class="st2" d="M250.1,336.1c0.1-0.6,0.3-0.9,0.6-0.9c0.3,0,0.5,0.2,0.9,1l9.1,18.7l9-19c0.3-0.5,0.4-0.8,0.7-0.8
		c0.3,0,0.5,0.3,0.6,1l3,20.5c0.3,2.1,0.6,3.1,1.6,3.4c1,0.3,1.6,0.3,2.1,0.3c0.3,0,0.5,0,0.5,0.2c0,0.3-0.4,0.4-0.9,0.4
		c-0.8,0-5.4-0.1-6.7-0.2c-0.8-0.1-1-0.2-1-0.4c0-0.2,0.1-0.3,0.4-0.4c0.2-0.1,0.3-0.5,0.2-1.4l-2-14.6h-0.1l-7.2,15.1
		c-0.8,1.6-0.9,1.9-1.2,1.9c-0.3,0-0.6-0.7-1.2-1.7c-0.8-1.5-3.4-6.6-3.8-7.5c-0.3-0.7-2.3-4.9-3.5-7.4h-0.1l-1.7,13.2
		c-0.1,0.6-0.1,1-0.1,1.6c0,0.6,0.4,0.9,1,1.1c0.6,0.1,1.1,0.2,1.4,0.2c0.3,0,0.5,0.1,0.5,0.2c0,0.3-0.3,0.4-0.8,0.4
		c-1.4,0-2.9-0.1-3.5-0.1c-0.6,0-2.2,0.1-3.3,0.1c-0.3,0-0.6-0.1-0.6-0.4c0-0.2,0.2-0.2,0.5-0.2c0.3,0,0.5,0,1-0.1
		c0.9-0.2,1.2-1.5,1.4-2.6L250.1,336.1z"/>
	<path class="st2" d="M283.5,345.6c0-5,0-6-0.1-7c-0.1-1.1-0.3-1.7-1.4-1.9c-0.3-0.1-0.8-0.1-1.3-0.1c-0.4,0-0.6-0.1-0.6-0.3
		c0-0.2,0.2-0.3,0.7-0.3c0.9,0,1.9,0,2.7,0c0.9,0,1.6,0.1,2.1,0.1c1.1,0,7.7,0,8.3,0c0.6-0.1,1.2-0.1,1.4-0.2c0.2,0,0.4-0.1,0.5-0.1
		c0.2,0,0.2,0.1,0.2,0.3c0,0.2-0.2,0.6-0.3,2.2c0,0.3-0.1,1.8-0.2,2.2c0,0.2-0.1,0.4-0.3,0.4s-0.3-0.2-0.3-0.5c0-0.2,0-0.8-0.2-1.2
		c-0.2-0.6-0.6-1-2.2-1.2c-0.6-0.1-4.1-0.1-4.7-0.1c-0.2,0-0.2,0.1-0.2,0.3v8.4c0,0.2,0,0.4,0.2,0.4c0.7,0,4.5,0,5.3-0.1
		c0.8-0.1,1.3-0.2,1.6-0.5c0.2-0.3,0.4-0.4,0.5-0.4c0.1,0,0.2,0.1,0.2,0.3c0,0.2-0.1,0.7-0.3,2.4c0,0.7-0.1,2-0.1,2.2
		c0,0.3,0,0.6-0.3,0.6c-0.2,0-0.3-0.1-0.3-0.3c0-0.3,0-0.8-0.1-1.2c-0.2-0.7-0.6-1.2-1.9-1.3c-0.6-0.1-3.9-0.1-4.7-0.1
		c-0.2,0-0.2,0.1-0.2,0.3v2.6c0,1.1,0,4.2,0,5.1c0.1,2.3,0.6,2.8,4,2.8c0.9,0,2.3,0,3.1-0.4c0.9-0.4,1.3-1.1,1.5-2.5
		c0.1-0.4,0.1-0.5,0.4-0.5c0.3,0,0.3,0.3,0.3,0.6c0,0.8-0.3,3-0.4,3.7c-0.2,0.9-0.5,0.9-1.8,0.9c-2.5,0-4.3-0.1-5.7-0.1
		c-1.4-0.1-2.5-0.1-3.5-0.1c-0.4,0-1.1,0-1.9,0c-0.8,0-1.6,0.1-2.3,0.1c-0.4,0-0.7-0.1-0.7-0.3c0-0.2,0.1-0.3,0.5-0.3
		c0.5,0,0.9-0.1,1.2-0.1c0.7-0.1,0.8-0.9,1-1.8c0.2-1.4,0.2-4,0.2-7.1V345.6z"/>
	<path class="st2" d="M304.5,345.6c0-5,0-6-0.1-7c-0.1-1.1-0.3-1.7-1.4-1.9c-0.3-0.1-0.8-0.1-1.3-0.1c-0.4,0-0.6-0.1-0.6-0.3
		c0-0.2,0.2-0.3,0.7-0.3c1.8,0,3.8,0.1,4.5,0.1c1.1,0,3.7-0.1,4.7-0.1c2.1,0,4.3,0.2,6.1,1.4c0.9,0.6,2.3,2.3,2.3,4.5
		c0,2.5-1,4.7-4.4,7.4c3,3.7,5.2,6.7,7.2,8.7c1.9,1.9,3.2,2.2,3.7,2.3c0.4,0.1,0.7,0.1,0.9,0.1c0.3,0,0.4,0.1,0.4,0.3
		c0,0.3-0.2,0.3-0.6,0.3h-3.2c-1.9,0-2.7-0.2-3.6-0.6c-1.4-0.8-2.7-2.3-4.5-4.9c-1.3-1.8-2.9-4.1-3.3-4.6c-0.2-0.2-0.4-0.2-0.6-0.2
		l-2.9-0.1c-0.2,0-0.3,0.1-0.3,0.3v0.5c0,3.1,0,5.7,0.2,7.1c0.1,1,0.3,1.7,1.3,1.8c0.5,0.1,1.2,0.1,1.6,0.1c0.3,0,0.4,0.1,0.4,0.3
		c0,0.2-0.2,0.3-0.7,0.3c-1.9,0-4.4-0.1-4.9-0.1c-0.6,0-2.7,0.1-4.1,0.1c-0.4,0-0.7-0.1-0.7-0.3c0-0.2,0.1-0.3,0.5-0.3
		c0.5,0,0.9-0.1,1.2-0.1c0.7-0.1,0.8-0.9,1-1.8c0.2-1.4,0.2-4,0.2-7.1V345.6z M308.4,348.2c0,0.4,0.1,0.5,0.3,0.6
		c0.7,0.2,1.7,0.3,2.5,0.3c1.3,0,1.8-0.1,2.4-0.6c1-0.7,2-2.3,2-5c0-4.7-3.1-6.1-5.1-6.1c-0.8,0-1.4,0-1.8,0.1
		c-0.2,0.1-0.3,0.2-0.3,0.5V348.2z"/>
</g>
</svg>
